<svg height="512" viewBox="0 0 512 512" width="512" xmlns="http://www.w3.org/2000/svg"><path d="m256.60953 108.08889a98.107292 146.45841 0 0 0 -27.60098 6.60317 49.009413 73.163174 0 0 1 6.36946 35.65716 49.540201 73.955556 0 0 1 -49.5402 73.95554 49.009413 73.163174 0 0 1 -23.88545-9.50856 98.815009 147.51493 0 1 0 94.65717-106.70731zm251.68192 128.62984c-47.94785-139.723175-142.95888-234.2806348-251.68192-234.2806348-108.72305 0-203.734085 94.5574598-251.6819231 234.2806348a28.662545 42.788571 0 0 0 0 38.56254c47.9478381 139.72317 142.9588731 234.28063 251.6819231 234.28063 108.72304 0 203.73407-94.55746 251.68192-234.28063a28.662545 42.788571 0 0 0 0-38.56254zm-251.68192 209.4527c-87.31461 0-167.286651-72.63492-210.457398-190.17143 43.170747-117.5365 123.142788-190.171428 210.457398-190.171428 87.3146 0 167.28664 72.634928 210.45738 190.171428-43.17074 117.53651-123.14278 190.17143-210.45738 190.17143z" stroke-width="1.080877"/></svg>